<?xml version="1.0"?><svg width="600" height="480" xmlns="http://www.w3.org/2000/svg">
 <!-- Created with SVG-edit - http://svg-edit.googlecode.com/ -->

 <title>taco mae</title>
 <g>
  <title>Layer 1</title>
  <line fill="none" stroke="#000000" stroke-width="5" stroke-dasharray="null" stroke-linejoin="null" stroke-linecap="null" x1="321.078958" y1="383.136852" x2="202.197835" y2="386.133856" id="svg_170"/>
  <line fill="none" stroke="#000000" stroke-width="5" stroke-dasharray="null" stroke-linejoin="null" stroke-linecap="null" x1="321.078959" y1="385.134855" x2="229.170863" y2="405.114875" id="svg_171"/>
  <path fill="#07703a" stroke="#000000" stroke-width="5" stroke-dasharray="null" stroke-linejoin="null" stroke-linecap="null" d="m471.92804,242.277802c0,0 10.988983,0.998993 10.588989,0.479004c-0.399017,-0.518982 6.393982,3.516998 9.390991,2.518005c2.997009,-0.998993 6.992004,-4.996002 8.591003,-10.51001c1.598999,-5.513977 -3.596985,-8.471985 -6.993011,-9.98999c-3.395996,-1.518005 -4.595001,-8.471008 -4.994995,-8.990997c-0.398987,-0.519012 9.391022,1.518982 4.395996,-7.472015c-4.994995,-8.990997 -7.991974,-4.994995 -8.391998,-5.514984c-0.398987,-0.519012 -7.592987,0.518982 -8.990997,-1.998016c-1.39798,-2.516998 7.393005,-3.475983 2.39801,-9.470001c-4.994995,-5.993988 -10.989014,-0.998993 -11.389008,-1.518982c-0.398987,-0.519012 -4.595001,9.510986 -4.994995,8.990997c-0.398987,-0.519012 1.39801,1.518005 -3.996002,7.992004c-5.394012,6.473999 8.391998,6.514008 7.992004,5.993988c-0.398987,-0.518982 10.389984,4.515991 10.389984,4.515991c0,0 -0.001007,4.993988 -1.398987,8.471008c-1.39798,3.47702 -7.59201,3.516998 -7.992004,2.997009c-0.398987,-0.519012 -1.597992,7.513 -1.997986,6.992981c-0.399017,-0.518982 7.393005,6.514008 7.393005,6.514008z" id="svg_22"/>
  <path fill="#6b0c0c" stroke="#000000" stroke-width="5" stroke-dasharray="null" stroke-linejoin="null" stroke-linecap="null" d="m451.947968,314.026306c0,0 15.587219,2.227417 15.141479,1.647736c-0.444702,-0.578613 11.579468,-4.988922 11.579468,-4.988922c0,0 3.340088,-8.90979 2.226746,-12.250977c-1.113403,-3.341095 -4.45462,-11.138245 -7.126038,-11.716919c-2.671387,-0.578613 -9.574524,5.034637 -10.020325,4.454926c-0.444672,-0.578613 -9.574524,-3.875214 -10.020355,-4.454926c-0.444672,-0.578613 1.559143,16.171814 1.559143,16.171814c0,0 -3.340118,11.137268 -3.340118,11.137268z" id="svg_23"/>
  <path fill="#6b156b" stroke="#000000" stroke-width="5" stroke-dasharray="null" stroke-linejoin="null" stroke-linecap="null" d="m476.923157,277.242737c0.453918,0.280212 11.987976,5.994019 11.987976,5.994019c0,0 9.990082,-6.993042 9.990082,-6.993042c0,0 2.996918,-14.985016 2.996918,-14.985016c0,0 -0.998962,-7.99202 -2.397644,-10.509476c-1.398682,-2.517456 -6.593292,-4.475525 -6.99295,-4.994995c-0.399689,-0.51947 -7.592346,-0.479523 -7.992035,-0.998993c-0.399628,-0.51947 -9.590363,5.514465 -9.98999,4.994995c-0.399719,-0.51947 -1.598389,10.509476 -1.998047,9.990005c-0.399658,-0.51944 10.38974,6.513489 9.990082,5.993988" id="svg_24"/>
  <path fill="#6ead2e" stroke="#000000" stroke-width="5" stroke-dasharray="null" stroke-linejoin="null" stroke-linecap="null" d="m155.860138,231.163834c-8,3 1,-15 -7,-12c-8,3 6,-10 6,-10c0,0 0,-4 -8,-7c-8,-3 9,-8 9,-8c0,0 0,-11 0,-14c0,-3 17,1 17,1c0,0 1,-8 2,-15c1,-7 12,-2 12,-2c0,0 -1,-12 -1,-15c0,-3 6,-2 13,0c7,2 13,-6 16,-9c3,-3 9,0 10,3c1,3 -5,9 -5,9c0,0 7,6 3,11c-4,5 -23,20 -23,20c0,0 -23,19 -23,19c0,0 -11,14 -11,14c0,0 -2,12 -10,15z" id="svg_3"/>
  <path fill="#3f7f00" stroke="#000000" stroke-width="5" stroke-dasharray="null" stroke-linejoin="null" stroke-linecap="null" d="m212.864151,136.762848c0,0 -4,-14.000008 -4,-14.000008c0,0 10,-9 10,-9c0,0 8,-7.000015 10,-4c2,3 10,11 14,10c4,-1 6,-4 7,-9c1,-5.000015 6,0 9.000015,-5.000015c3,-5 8,6.000015 10,6.000015c2,0 8,-6.000015 8,-6.000015c0,0 4,-10 7,-10c3,0 8,5 10,5c2,0 13,-4 10,-4c-3,0 9,4 9,6c0,2 -5,13.000015 -5,13.000015c0,0 -7,6 -7,6c0,0 -9,-2 -12,-2c-3,0 3,10.000008 -1,10.000008c-4,0 -12,-1 -12,-1c0,0 -8,4 -8,4c0,0 -20.000015,2 -20.000015,2c0,0 -15,2 -15,2c0,0 -8,4 -8,4c0,0 -12,-4 -12,-4z" id="svg_4"/>
  <path fill="#7f0000" stroke="#000000" stroke-width="5" stroke-dasharray="null" stroke-linejoin="null" stroke-linecap="null" d="m223.861145,162.164825c0,0 -5,-10 -4,-12c1,-2 4,-7 4,-7c0,0 13,-4 13,-4c0,0 13,-4 13,-4c0,0 11,-2 11,-2c0,0 8,2 8,2c0,0 -3,8 -3,8c0,0 0,7 0,7c0,0 -20,6 -20,6c0,0 -13,5 -13,5c0,0 -9,1 -9,1z" id="svg_5"/>
  <path fill="#59a80a" stroke="#000000" stroke-width="5" stroke-dasharray="null" stroke-linejoin="null" stroke-linecap="null" d="m341.540741,126.687042c1,-1.999023 2.498016,-8.99585 2.298004,-9.255699c-0.200012,-0.259926 4.197937,-4.237892 6.196991,-4.237892c1.999023,0 7.497009,4.997498 7.497009,4.997498c0,0 3.997955,1.499275 3.797974,1.23938c-0.199982,-0.259888 6.196991,-7.736237 6.196991,-7.736237c0,0 5.995728,-3.997955 8.495026,-3.997955c2.499237,0 6.496979,4.99749 6.496979,4.99749c0,0 7.496002,7.99601 8.29599,7.236397c0.799011,-0.759583 7.696198,-1.239281 9.994965,-1.499207c2.298828,-0.259926 7.696014,5.757195 6.49704,5.997192c-1.199982,0.23999 -2.799042,8.256058 -0.500031,7.996048c2.299011,-0.26001 10.695007,-0.740051 10.494995,-1c-0.199951,-0.26001 6.196228,-6.23629 10.494019,-2.998062c4.297791,3.238297 5.697998,7.756058 5.497986,7.496048c-0.199951,-0.26001 1.199036,7.755981 0.999023,7.495972c-0.200012,-0.26001 10.195007,-1.238983 11.994019,-1.998962c1.79895,-0.759033 10.695007,2.25946 10.494995,2.998962c-0.200012,0.739532 1.198975,7.256042 1.198975,7.256042c0,0 -2.497986,6.996948 -2.697998,6.736938c-0.200012,-0.259949 9.695007,2.758545 9.695007,3.758057c0,0.999451 4.497986,3.497955 2.499023,5.496948c-1.999023,1.999023 -3.998047,3.998047 -4.197998,3.738037c-0.200012,-0.26001 -6.296997,3.757996 -6.497009,3.498962c-0.200012,-0.26001 -6.296997,-3.238953 -6.497009,-3.498962c-0.200012,-0.26001 -6.796021,0.26001 -6.996033,0c-0.199951,-0.26001 -6.296997,-1.739014 -6.496948,-1.999023c-0.200012,-0.259949 1.698975,-7.235962 1.498962,-7.495972c-0.200012,-0.26001 -3.297974,-7.735992 -3.497986,-7.996033c-0.200012,-0.26001 -5.796997,1.759033 -5.997009,1.499023c-0.200012,-0.259979 -4.297974,5.757019 -4.497986,5.497986c-0.199982,-0.26001 0.200012,5.756989 -2.997986,5.497009c-3.199036,-0.259979 -7.296997,-3.738037 -7.497009,-3.998016c-0.200043,-0.259949 -8.295044,-1.738983 -8.494995,-1.998993c-0.200012,-0.259979 -6.796997,-1.739014 -6.99704,-1.999023c-0.199951,-0.259949 -8.295959,-4.737976 -8.495941,-4.997986c-0.200012,-0.259979 0.199982,-5.737 0,-5.997009c-0.200012,-0.259949 4.197968,-1.23999 4.197968,-4.237976c0,-2.998993 -2.997986,-4.996979 -3.197998,-5.257019c-0.199982,-0.259949 -6.296967,-4.237976 -6.296967,-4.237976c0,0 -7.996033,2.499023 -8.195984,2.239014c-0.200012,-0.26001 -7.296021,-8.736046 -7.496033,-8.995041c-0.199982,-0.260025 -5.796967,5.257034 -5.997009,4.997055c-0.199982,-0.26001 -4.297974,4.257996 -4.497986,3.997986c-0.199982,-0.26001 -8.29599,-0.23999 -8.495972,-0.500031c-0.200012,-0.259979 -3.798035,-5.736984 -3.998047,-5.996994c-0.199951,-0.26001 -5.296967,-0.739014 -4.296967,-2.737976z" id="svg_13" transform="rotate(3.96743, 404.7, 141.306)"/>
  <path fill="#701570" stroke="#000000" stroke-width="5" stroke-dasharray="null" stroke-linejoin="null" stroke-linecap="null" d="m402.444336,170.929108c0.374023,0.175018 2.998993,-10.986969 0,-14.984985c-2.998993,-3.998016 -12.986969,-7.992004 -13.386963,-8.511993c-0.399017,-0.519012 -15.084015,-5.476013 -18.981018,-4.995026c-3.897003,0.481018 -8.591003,9.511017 -8.990997,8.990997c-0.398987,-0.518982 0.39801,8.511017 1.998016,7.992004c1.600006,-0.518982 19.380981,5.515015 19.380981,5.515015c0,0 19.97998,5.993988 19.97998,5.993988z" id="svg_18"/>
  <path fill="#3f7f00" stroke="#000000" stroke-width="5" stroke-dasharray="null" stroke-linejoin="null" stroke-linecap="null" d="m394.649963,174.677887c-5.330017,-0.665985 -1.66803,-22.645996 4.994995,-15.983978c6.662994,6.661987 8.325012,-9.662018 10.590027,0.478973c2.264984,10.140991 8.390991,4.516022 7.991943,3.996002c-0.399994,-0.518982 7.392029,-12.46698 6.992004,-12.987c-0.398987,-0.518982 7.393005,-1.480988 8.992004,5.994019c1.598999,7.475006 -5.594971,14.504974 -2.664001,18.649994c2.93103,4.144989 13.05304,-5.143005 12.653992,-5.662994c-0.399963,-0.519012 11.722015,-2.812012 9.990051,3.995972c-1.732025,6.808014 -3.597046,7.513 -3.996002,6.993011c-0.399994,-0.519012 0.067963,4.846008 -2.99704,8.990997c-3.064972,4.14502 13.385986,1.519012 12.987,0.998993c-0.399994,-0.518982 11.388977,2.183014 6.992981,6.993011c-4.395996,4.809998 -5.260986,3.847015 -6.992981,9.98999c-1.731964,6.143005 4.39502,8.512024 3.996033,7.992004c-0.400024,-0.518982 11.388977,0.52002 8.990967,0c-2.398987,-0.518982 15.387024,3.182007 6.992981,7.992004c-8.393982,4.809998 -6.593994,6.514008 -6.992981,5.993988c-0.400024,-0.518982 -0.930969,-0.814972 -5.994019,5.994019c-5.062958,6.80899 4.394043,0.515991 9.990082,7.992004c5.595917,7.475983 -4.596039,7.513 -4.995087,6.992981c-0.399963,-0.518982 -2.596985,6.845001 -2.996948,8.990997c-0.400024,2.146027 11.388,7.51297 10.988953,6.993011c-0.399963,-0.518982 5.39502,6.179993 2.99704,6.993042c-2.399017,0.812927 -9.256989,1.516968 -10.989044,4.994934c-1.731964,3.478027 3.730042,10.51001 0,9.98999c-3.730957,-0.518982 -9.588989,2.184021 -11.987976,2.99707c-2.39801,0.813965 -2.597992,-22.457031 -2.997009,-22.977051c-0.399994,-0.518982 -4.595947,-18.460999 -4.994995,-18.980988c-0.399963,-0.519012 -5.594971,-18.460999 -5.993958,-18.980988c-0.399994,-0.519012 -7.593018,-14.464996 -7.993042,-14.985016c-0.398987,-0.518982 -10.588989,-14.464996 -10.988007,-14.984985c-0.399994,-0.519012 -12.587982,-14.464996 -12.986969,-14.985016c-0.400024,-0.518982 -10.589996,-7.471985 -10.988983,-7.992004c-0.399994,-0.518982 -3.261993,-1.810974 -8.59201,-2.47699z" id="svg_21"/>
  <path fill="#c96910" stroke="#000000" stroke-width="5" d="m155.005859,232.162003c3,-8 17,-30 17,-30c0,0 32,-25 32,-25c0,0 44,-24 44,-24c0,0 28,-7 33,-6c5,1 43,5 43,5c0,0 46,11 46,11c0,0 40,15 40,15c0,0 21,20 21,20c0,0 18,30 18,30c0,0 10,40.999985 10,36.999985c0,-4 -2,46 -2,46c0,0 3,14 -5,16c-8,2 -26,3 -26,3c0,0 -35,-9 -35,-9c0,0 -65,-14 -65,-14c0,0 -76,-17 -76,-17c0,0 -74,-24 -74,-24c0,0 -23,-14.999985 -23,-14.999985c0,0 -1,-11 2,-19z" id="svg_2"/>
  <path fill="#ff0000" stroke="#000000" stroke-width="5" stroke-dasharray="null" stroke-linejoin="null" stroke-linecap="null" d="m276.712006,236.283997c-5.388,0 -4.490021,50.417999 0.539001,51.515015c5.029999,1.097992 81.190979,-1.838013 82.627991,-0.740997c1.437012,1.096985 3.951996,-47.067017 0,-48.935013c-3.951996,-1.869003 -77.777985,-1.839005 -83.166992,-1.839005z" id="svg_25" transform="rotate(13.5963, 317.528, 262.167)"/>
  <path fill="#ffffff" stroke="#000000" stroke-width="5" stroke-dasharray="null" stroke-linejoin="null" stroke-linecap="null" d="m286.113922,228.291687c0.452972,0.34726 9.370331,22.338806 9.370331,22.338806c0,0 12.181458,-15.540039 12.181458,-15.540039c0,0 7.496155,19.425049 7.121399,18.919983c-0.374817,-0.505035 11.619202,-13.092468 11.619202,-13.092468c0,0 4.685181,19.424988 4.685181,19.424988c0,0 12.181458,-15.540009 12.181458,-15.540009c0,0 0.936951,18.453766 0.936951,18.453766c0,0 17.80365,-13.597504 17.428833,-14.102539c-0.374817,-0.505035 -75.524811,-20.862488 -75.524811,-20.862488z" id="svg_26"/>
  <path fill="#ffffff" stroke="#000000" stroke-width="5" stroke-dasharray="null" stroke-linejoin="null" stroke-linecap="null" d="m275.064514,265.029663c0.45401,0.279175 9.378998,17.974457 9.378998,17.974457c0,0 12.192017,-12.504425 12.192017,-12.504425c0,0 7.502991,15.630554 7.126984,15.224548c-0.375,-0.40683 11.629944,-10.534943 11.629944,-10.534943c0,0 4.689026,15.629669 4.689026,15.629669c0,0 12.192017,-12.503571 12.192017,-12.503571c0,0 0.937988,14.848328 0.937988,14.848328c0,0 17.81897,-10.940918 17.44397,-11.347748c-0.375,-0.405975 -75.590942,-16.786316 -75.590942,-16.786316z" id="svg_27" transform="rotate(-177.263, 312.863, 279.097)"/>
  <ellipse fill="#000000" stroke="#000000" stroke-width="5" stroke-dasharray="null" stroke-linejoin="null" stroke-linecap="null" cx="299.60044" cy="197.822167" id="svg_30" rx="6.493506" ry="7.492506"/>
  <ellipse fill="#000000" stroke="#000000" stroke-width="5" stroke-dasharray="null" stroke-linejoin="null" stroke-linecap="null" cx="513.886159" cy="288.231754" id="svg_32"/>
  <ellipse fill="#000000" stroke="#000000" stroke-width="5" stroke-dasharray="null" stroke-linejoin="null" stroke-linecap="null" cx="505.894151" cy="320.199787" id="svg_33"/>
  <ellipse fill="#000000" stroke="#000000" stroke-width="5" stroke-dasharray="null" stroke-linejoin="null" stroke-linecap="null" cx="360.039992" cy="213.306666" rx="6.493506" ry="7.492506" id="svg_40"/>
  <ellipse fill="#ffffff" stroke="#000000" stroke-width="5" stroke-dasharray="null" stroke-linejoin="null" stroke-linecap="null" cx="361.039003" cy="210.309693" rx="3.996005" ry="4.495504" id="svg_39"/>
  <ellipse fill="#ffffff" stroke="#000000" stroke-width="5" stroke-dasharray="null" stroke-linejoin="null" stroke-linecap="null" cx="301.098937" cy="194.825158" id="svg_38" rx="3.996005" ry="4.495504"/>
  <ellipse fill="#7f3f00" stroke="#000000" stroke-width="5" stroke-dasharray="null" stroke-linejoin="null" stroke-linecap="null" cx="265.1349" cy="395.124865" id="svg_41"/>
  <ellipse fill="#b7600e" stroke-width="0" stroke-dasharray="null" stroke-linejoin="null" stroke-linecap="null" cx="193.206828" cy="223.29669" id="svg_50" rx="8.991009" ry="10.989011"/>
  <ellipse fill="#b7600e" stroke-width="0" stroke-dasharray="null" stroke-linejoin="null" stroke-linecap="null" cx="115.284744" cy="406.113876" id="svg_51"/>
  <ellipse fill="#b7600e" stroke-width="0" stroke-dasharray="null" stroke-linejoin="null" stroke-linecap="null" cx="198.201825" cy="237.282698" id="svg_52" rx="3.996004" ry="3.996004"/>
  <ellipse fill="#b7600e" stroke-width="0" stroke-dasharray="null" stroke-linejoin="null" stroke-linecap="null" cx="66.333693" cy="393.126863" id="svg_53"/>
  <ellipse fill="#c96910" stroke-width="5" stroke-dasharray="null" stroke-linejoin="null" stroke-linecap="null" cx="50.349677" cy="389.130859" id="svg_61"/>
  <ellipse fill="#b7600e" stroke-width="0" stroke-dasharray="null" stroke-linejoin="null" stroke-linecap="null" cx="326.073962" cy="174.34563" id="svg_62" rx="5.994006" ry="7.992008"/>
  <ellipse fill="#b7600e" stroke-width="0" stroke-dasharray="null" stroke-linejoin="null" stroke-linecap="null" cx="216.183849" cy="357.162825" id="svg_63"/>
  <ellipse fill="#b7600e" stroke-width="0" stroke-dasharray="null" stroke-linejoin="null" stroke-linecap="null" cx="335.06497" cy="181.338647" id="svg_64" rx="3.996004" ry="3.996004"/>
  <ellipse fill="#b7600e" stroke-width="0" stroke-dasharray="null" stroke-linejoin="null" stroke-linecap="null" cx="366.034011" cy="303.216777" id="svg_65" rx="6.993007" ry="5.994006"/>
  <ellipse fill="#b7600e" stroke-width="0" stroke-dasharray="null" stroke-linejoin="null" stroke-linecap="null" cx="285.114921" cy="456.063928" id="svg_66"/>
  <ellipse fill="#b7600e" stroke-width="0" stroke-dasharray="null" stroke-linejoin="null" stroke-linecap="null" cx="376.024021" cy="296.223761" id="svg_67" rx="3.996004" ry="2.997003"/>
  <ellipse fill="#c96910" stroke-width="0" stroke-dasharray="null" stroke-linejoin="null" stroke-linecap="null" cx="218.181851" cy="456.063928" id="svg_70"/>
  <ellipse fill="#c96910" stroke-width="0" stroke-dasharray="null" stroke-linejoin="null" stroke-linecap="null" cx="222.177856" cy="456.063928" id="svg_71"/>
  <ellipse fill="#c96910" stroke-width="0" stroke-dasharray="null" stroke-linejoin="null" stroke-linecap="null" cx="43.35667" cy="386.133856" id="svg_72"/>
  <ellipse fill="#c96910" stroke-width="0" stroke-dasharray="null" stroke-linejoin="null" stroke-linecap="null" cx="49.350676" cy="386.133856" id="svg_73"/>
  <ellipse fill="#b7600e" stroke-width="0" stroke-dasharray="null" stroke-linejoin="null" stroke-linecap="null" cx="430.969078" cy="273.246736" id="svg_74" rx="10.989011" ry="12.987014"/>
  <ellipse fill="#b7600e" stroke-width="0" stroke-dasharray="null" stroke-linejoin="null" stroke-linecap="null" cx="285.114921" cy="450.069922" id="svg_75"/>
  <ellipse fill="#b7600e" stroke-width="0" stroke-dasharray="null" stroke-linejoin="null" stroke-linecap="null" cx="435.964076" cy="294.225757" id="svg_76" rx="4.995005" ry="5.994006"/>
  <ellipse fill="#b7600e" stroke-width="0" stroke-dasharray="null" stroke-linejoin="null" stroke-linecap="null" cx="470.929114" cy="434.085906" id="svg_77" ry="0.999001"/>
  <ellipse fill="#b7600e" stroke-width="0" stroke-dasharray="null" stroke-linejoin="null" stroke-linecap="null" cx="421.978066" cy="289.730255" id="svg_78" rx="3.996004" ry="4.495506"/>
  <path fill="#2ead2e" stroke="#000000" stroke-width="5" stroke-dasharray="null" stroke-linejoin="null" stroke-linecap="null" d="m266.053802,149.688019c-1.998016,-0.998993 -1,-10.994995 -1.200012,-11.255005c-0.200012,-0.259979 8.696014,-7.235992 8.496002,-7.495972c-0.200012,-0.26001 13.192993,-0.740021 12.993011,-0.999023c-0.199005,-0.26001 -1.796997,-6.737007 2.198975,-6.737007c3.996002,0 10.997009,3.49601 14.792999,-0.76001c3.796021,-4.255585 7.696014,-9.734863 7.696014,-9.734863c0,0 6.497009,-0.500221 9.295013,-1.759117c2.796997,-1.258919 6.696991,8.25589 6.496979,7.996002c-0.199982,-0.259895 5.199005,7.257019 7.996002,6.997009c2.796997,-0.26001 9.196014,-5.73761 8.996002,-5.997505c-0.200012,-0.259918 7.695984,5.7575 7.695984,5.7575c0,0 4,4.996994 6.796997,4.737015c2.796997,-0.26001 8.195007,-4.238014 8.195007,-4.238014c0,0 1.502014,-3.998016 5.497986,-4.997101c3.996033,-0.999016 5.497009,6.996101 5.297058,6.737106c-0.200012,-0.26001 9.194946,0.258995 8.995972,0c-0.200012,-0.26001 11.19397,0.761986 9.994995,5.497002c-1.198975,4.734985 -1.799988,6.755981 -1.999023,6.496979c-0.199951,-0.259979 -6.796997,5.257019 -6.996948,4.997009c-0.200012,-0.26001 -11.294006,-3.738007 -11.494019,-3.997986c-0.200012,-0.26001 -8.296021,5.256989 -8.496033,4.997986c-0.199951,-0.26001 -5.296997,6.256012 -5.496948,5.997009c-0.200012,-0.26001 -3.299011,5.256989 -3.498047,4.997009c-0.199951,-0.26001 -17.291992,-2.739014 -17.491974,-2.999023c-0.200012,-0.258972 -16.291992,-4.237 -16.490997,-4.497009c-0.200012,-0.259979 -18.791016,0.26001 -18.990997,0c-0.200012,-0.259979 -16.792023,-1.23999 -16.990997,-1.498993c-0.200012,-0.259979 -12.294006,1.759003 -12.494019,1.498993c-0.199982,-0.259979 -7.796997,1.259033 -9.794983,0.26001z" id="svg_11"/>
  <ellipse fill="#ffff00" stroke="#000000" stroke-width="5" stroke-dasharray="null" stroke-linejoin="null" stroke-linecap="null" cx="255.14489" cy="398.121868" id="svg_100"/>
  <ellipse fill="#ffff00" stroke="#000000" stroke-width="5" stroke-dasharray="null" stroke-linejoin="null" stroke-linecap="null" cx="125.274755" cy="318.201785" id="svg_103"/>
  <path fill="#e89c55" stroke="#000000" stroke-width="5" stroke-dasharray="null" stroke-linejoin="null" stroke-linecap="null" d="m358.829987,327.978455c0,0 14.370148,-2.99704 14.050507,-3.517029c-0.318909,-0.518951 12.2948,-0.478912 11.975128,-0.998993c-0.318878,-0.518982 -5.268707,7.513031 -7.663818,9.510986c-2.394989,1.998047 -8.782532,10.987915 -10.698029,5.47403c-1.915619,-5.513947 -7.663788,5.515015 -7.663788,5.515015c0,0 0,-15.984009 0,-15.984009z" id="svg_105" transform="rotate(-6.3118, 371.846, 333.7)"/>
  <path fill="#e89c55" stroke="#000000" stroke-width="5" stroke-dasharray="null" stroke-linejoin="null" stroke-linecap="null" d="m371.097778,344.226044c-0.000061,0 10.294891,9.199066 9.978119,8.800507c-0.316772,-0.398651 5.860168,7.297913 5.543365,6.899261c-0.316742,-0.398621 -6.810425,3.464905 -12.670593,-3.066345c-5.860199,-6.531311 -7.602417,-4.200897 -7.919159,-4.599548c-0.316833,-0.398621 5.068268,-8.033875 5.068268,-8.033875z" id="svg_107" transform="rotate(-16.5496, 376.324, 352.464)"/>
  <ellipse fill="#edb744" stroke="#000000" stroke-width="5" stroke-dasharray="null" stroke-linejoin="null" stroke-linecap="null" cx="340.059981" cy="355.66432" id="svg_101" rx="33.966035" ry="39.460539"/>
  <ellipse fill="#000000" stroke="#000000" stroke-width="5" stroke-dasharray="null" stroke-linejoin="null" stroke-linecap="null" cx="347.052982" cy="338.681305" id="svg_111" rx="5.994007" ry="7.492508"/>
  <ellipse fill="#ffffff" stroke-width="5" stroke-dasharray="null" stroke-linejoin="null" stroke-linecap="null" cx="348.551489" cy="334.685276" id="svg_113" rx="2.497513" ry="3.496498"/>
  <ellipse fill="#ed7474" stroke-width="0" stroke-dasharray="null" stroke-linejoin="null" stroke-linecap="null" cx="337.562457" cy="362.15783" id="svg_115" rx="16.483516" ry="5.994007" transform="rotate(-31.185, 337.562, 362.158)"/>
  <ellipse fill="#ed9acd" stroke-width="0" stroke-dasharray="null" stroke-linejoin="null" stroke-linecap="null" cx="218.181851" cy="411.108882" id="svg_116"/>
  <ellipse fill="#ed9acd" stroke-width="0" stroke-dasharray="null" stroke-linejoin="null" stroke-linecap="null" cx="109.290738" cy="400.11987" id="svg_117"/>
  <ellipse fill="#ed9acd" stroke-width="0" stroke-dasharray="null" stroke-linejoin="null" stroke-linecap="null" cx="107.292736" cy="399.120869" id="svg_118"/>
  <text fill="#000000" stroke="#000000" stroke-width="0" stroke-dasharray="null" stroke-linejoin="null" stroke-linecap="null" x="187.745" y="332.786" id="svg_162" font-size="24" font-family="Georgia" text-anchor="middle" xml:space="preserve" transform="rotate(9.49608, 255.987, 336.552) matrix(1.90468, 0, 0, 4.23413, -101.537, -1036.93)" font-weight="bold" font-style="normal">TAC</text>
  <line fill="none" stroke="#000000" stroke-width="5" stroke-dasharray="null" stroke-linejoin="null" stroke-linecap="null" x1="203.196836" y1="389.130859" x2="191.208823" y2="373.146842" id="svg_174"/>
  <line fill="none" stroke="#000000" stroke-width="5" stroke-dasharray="null" stroke-linejoin="null" stroke-linecap="null" x1="230.169864" y1="405.114875" x2="216.183849" y2="399.120869" id="svg_175"/>
  <line fill="none" stroke="#000000" stroke-width="5" stroke-dasharray="null" stroke-linejoin="null" stroke-linecap="null" x1="199.200832" y1="384.135854" x2="190.209822" y2="385.134855" id="svg_176"/>
  <line fill="none" stroke="#000000" stroke-width="5" stroke-dasharray="null" stroke-linejoin="null" stroke-linecap="null" x1="230.169864" y1="403.116873" x2="216.183849" y2="409.11088" id="svg_177"/>
  <line fill="none" stroke="#000000" stroke-width="5" stroke-dasharray="null" stroke-linejoin="null" stroke-linecap="null" x1="200.199833" y1="385.134855" x2="195.204828" y2="396.123866" id="svg_178"/>
  <line fill="none" stroke="#000000" stroke-width="5" stroke-dasharray="null" stroke-linejoin="null" stroke-linecap="null" x1="228.171862" y1="403.116873" x2="226.17386" y2="415.104886" id="svg_179"/>
  <line id="svg_9" y2="51" x2="174" y1="115" x1="217" stroke-width="5" stroke="#000000" fill="none"/>
  <line id="svg_14" y2="104" x2="110" y1="54" x1="175" stroke-width="5" stroke="#000000" fill="none"/>
  <line transform="rotate(-0.612766, 135.999, 140.751)" id="svg_16" y2="180.25" x2="162" y1="101.25" x1="110" stroke-width="5" stroke="#000000" fill="none"/>
  <rect transform="rotate(-35.5114, 163.426, 108.576)" id="svg_34" height="65.683801" width="72.954986" y="75.73375" x="126.947969" stroke-width="5" stroke="#7f3f00" fill="#7f3f00"/>
  <path id="svg_35" d="m155.75,161.850006c7.199997,12.799988 8,12.799988 8,12.799988c0,0 -8,-12.799988 -8,-12.799988z" stroke-width="5" stroke="#7f3f00" fill="#7f3f00"/>
  <path id="svg_37" d="m162.800003,174.800003c7.199997,2 10,-13.600006 10,-13.600006c0,0 -6,27.200012 -0.800003,4.800003c5.199997,-22.400009 -13.199997,-2.399994 -13.199997,-2.399994c0,0 18,-20 18,-20" stroke-width="5" stroke="#7f3f00" fill="#7f3f00"/>
  <path id="svg_43" d="m174,158.400009l8.400009,-0.400009c0,0 0.399994,-10 -0.400009,-12c-0.800003,-2 -7.199997,8 -7.199997,8.800003c0,0.800003 4.399994,-7.199997 4.399994,-7.199997c0,0 -1.199997,5.199997 -1.199997,5.199997c0,0 3.199997,2.399994 3.199997,2.399994c0,0 -8,-41.599998 -8,-41.599998c0,0 -7.199997,23.200005 -7.199997,23.200005" stroke-width="5" stroke="#7f3f00" fill="#7f3f00"/>
  <path id="svg_44" d="m184.400009,144.800003c0,0.399994 16,1.599991 16,1.599991c0,0 10,-6.399994 10,-6.399994c0,0 -7.199997,-22.800003 -7.199997,-22.800003c0,0 -23.200012,20.400009 -23.200012,20.400009c0,0 -0.799988,3.199997 -2.399994,3.599991c-1.600006,0.399994 8.399994,-10 8.399994,-10" stroke-width="5" stroke="#7f3f00" fill="#7f3f00"/>
  <path id="svg_45" d="m147.350006,148.699997c0,0 14.399994,22.400009 14,22.400009c-0.399994,0 7.999985,0.399994 7.999985,0.399994c0,0 16.800003,-41.600006 16.800003,-41.600006c0,0 -29.599991,8 -29.599991,8" stroke-width="5" stroke="#7f3f00" fill="#7f3f00"/>
  <rect id="svg_46" height="10.8" width="16.8" y="109.200001" x="143.600002" stroke-width="5" stroke="#7f3f00" fill="#7f3f00"/>
  <rect transform="rotate(17.3552, 168.45, 174.048)" id="svg_47" height="3.2" width="2.8" y="172.450002" x="167.050003" stroke-width="5" stroke="#7f3f00" fill="#7f3f00"/>
  <rect transform="rotate(-36.5415, 174.199, 62.7988)" id="svg_48" height="3.2" width="3.6" y="61.2" x="172.4" stroke-width="5" stroke="#7f3f00" fill="#7f3f00"/>
  <rect id="svg_49" height="3.200174" width="5.600284" y="140.000175" x="179.999431" stroke-width="5" stroke="#7f3f00" fill="#7f3f00"/>
  <path transform="rotate(157.965, 176.834, 76.5273)" id="svg_54" d="m176.277802,68.527779c8.666656,12 -5.333344,16 -5.333344,16c0,0 -2,-12 -2,-12c0,0 15.777771,9.111115 15.777771,9.333336c0,0.222221 -2.222229,-2 -2.222229,-3.777779c0,-1.777779 -7.555542,4.666664 -7.555542,4.666664" stroke-width="5" stroke="#7f3f00" fill="#7f3f00"/>
  <line transform="rotate(-0.169327, 149.581, 130.42)" id="svg_69" y2="168.416672" x2="175.250009" y1="92.41667" x1="123.916674" stroke-width="5" stroke="#000000" fill="none"/>
  <line id="svg_79" y2="149.583338" x2="184.500009" y1="82.250003" x1="139.166675" stroke-width="5" stroke="#000000" fill="none"/>
  <line id="svg_80" y2="148.666671" x2="204.666677" y1="70.666669" x1="151.333342" stroke-width="5" stroke="#000000" fill="none"/>
  <line id="svg_81" y2="126.000004" x2="209.333344" y1="62.666669" x1="164.666676" stroke-width="5" stroke="#000000" fill="none"/>
  <line id="svg_82" y2="77.333336" x2="190.666676" y1="126.666671" x1="125.333341" stroke-width="5" stroke="#000000" fill="none"/>
  <line id="svg_83" y2="96.000003" x2="205.00001" y1="144.000004" x1="139.000008" stroke-width="5" stroke="#000000" fill="none"/>
  <line id="svg_84" y2="113.333337" x2="215.333344" y1="160.666672" x1="149.333342" stroke-width="5" stroke="#000000" fill="none"/>
  <line transform="rotate(-89.9999, 209.375, 128.25)" id="svg_142" y2="129" x2="210" y1="127.5" x1="208.75" stroke-width="5" stroke="#000000" fill="none"/>
  <line transform="rotate(-31.1088, 184.875, 150.75)" id="svg_143" y2="150.5" x2="186.75" y1="151" x1="183" stroke-width="5" stroke="#000000" fill="none"/>
 </g>
</svg>