<?xml version="1.0" encoding="UTF-8" standalone="no"?>
<!-- Created with Inkscape (http://www.inkscape.org/) -->
<svg
   xmlns:dc="http://purl.org/dc/elements/1.1/"
   xmlns:cc="http://web.resource.org/cc/"
   xmlns:rdf="http://www.w3.org/1999/02/22-rdf-syntax-ns#"
   xmlns:svg="http://www.w3.org/2000/svg"
   xmlns="http://www.w3.org/2000/svg"
   xmlns:sodipodi="http://inkscape.sourceforge.net/DTD/sodipodi-0.dtd"
   xmlns:inkscape="http://www.inkscape.org/namespaces/inkscape"
   id="svg2"
   sodipodi:version="0.32"
   inkscape:version="0.43"
   width="150.64999"
   height="175.67499"
   sodipodi:docbase="C:\Documents and Settings\Liquid_2003\Bureau"
   sodipodi:docname="ext.svg"
   version="1.0">
  <metadata
     id="metadata7">
    <rdf:RDF>
      <cc:Work
         rdf:about="">
        <dc:format>image/svg+xml</dc:format>
        <dc:type
           rdf:resource="http://purl.org/dc/dcmitype/StillImage" />
        <dc:title>US Department of Justice Scales Of Justice</dc:title>
        <dc:date>11/03/2006</dc:date>
        <dc:creator>
          <cc:Agent>
            <dc:title>Liquid_2003</dc:title>
          </cc:Agent>
        </dc:creator>
        <dc:rights>
          <cc:Agent>
            <dc:title>Public Domain</dc:title>
          </cc:Agent>
        </dc:rights>
        <dc:source>http://fr.wikipedia.org/wiki/Image:US_Department_of_Justice_Scales_Of_Justice.gif</dc:source>
        <dc:language>Indépendant de la langue</dc:language>
        <dc:subject>
          <rdf:Bag>
            <rdf:li>Justice</rdf:li>
          </rdf:Bag>
        </dc:subject>
        <dc:description>Image PNG</dc:description>
        <dc:contributor>
          <cc:Agent>
            <dc:title>none</dc:title>
          </cc:Agent>
        </dc:contributor>
        <cc:license
           rdf:resource="http://web.resource.org/cc/PublicDomain" />
      </cc:Work>
      <cc:License
         rdf:about="http://web.resource.org/cc/PublicDomain">
        <cc:permits
           rdf:resource="http://web.resource.org/cc/Reproduction" />
        <cc:permits
           rdf:resource="http://web.resource.org/cc/Distribution" />
        <cc:permits
           rdf:resource="http://web.resource.org/cc/DerivativeWorks" />
      </cc:License>
    </rdf:RDF>
  </metadata>
  <defs
     id="defs5" />
  <sodipodi:namedview
     inkscape:window-height="817"
     inkscape:window-width="1152"
     inkscape:pageshadow="2"
     inkscape:pageopacity="0.0"
     borderopacity="1.0"
     bordercolor="#666666"
     pagecolor="#ffffff"
     id="base"
     inkscape:zoom="1.4215638"
     inkscape:cx="213.74229"
     inkscape:cy="88.089173"
     inkscape:window-x="-4"
     inkscape:window-y="-4"
     inkscape:current-layer="svg2" />
  <path
     style="fill:#000000"
     d="M 46.479672,174.61696 C 46.104742,174.24202 45.797972,173.58502 45.797972,173.15696 C 45.797972,171.46174 57.447332,164.16975 62.711302,162.56995 C 65.783972,161.63612 68.406972,160.81479 68.540192,160.74478 C 68.673412,160.67476 69.687372,133.07272 70.793433,99.406908 L 72.804443,38.196347 L 70.666513,35.304657 C 69.431672,33.634437 68.794562,31.719847 69.158252,30.772097 C 69.732902,29.274577 68.350602,29.193277 53.334552,29.841517 C 41.103452,30.369537 35.701672,30.221567 32.284862,29.264917 C 29.380622,28.451777 27.338662,28.327897 26.738152,28.928407 C 26.137642,29.528917 29.712012,50.813357 36.447402,86.744597 L 47.107042,143.61042 L 44.202502,145.94691 C 39.700702,149.56829 30.937192,152.58691 24.797972,152.63087 C 18.372262,152.67688 7.6065609,149.30737 3.3859109,145.9292 L 0.473851,143.59841 L 11.663532,86.183497 C 17.817842,54.605297 23.271762,27.776647 23.783332,26.564287 C 24.665492,24.473647 25.141062,24.389287 33.005712,24.928287 C 38.812492,25.326257 45.731172,24.862967 56.088412,23.382597 C 64.223152,22.219887 71.267213,21.268587 71.741893,21.268587 C 72.216573,21.268587 72.855713,19.131087 73.162203,16.518587 C 73.468693,13.906087 74.096403,9.2935869 74.557103,6.2685861 L 75.394753,0.76858611 L 76.129373,5.7685861 C 76.533403,8.5185864 77.114533,13.109577 77.420753,15.970777 L 77.977533,21.172967 L 82.137753,21.723177 C 84.425873,22.025787 91.472973,23.002717 97.797973,23.894137 C 105.17637,24.934017 112.26992,25.307937 117.59023,24.937437 C 125.45901,24.389467 125.92999,24.472547 126.81262,26.564287 C 127.32418,27.776647 132.77809,54.605297 138.93242,86.183497 L 150.12209,143.59841 L 147.21003,145.9292 C 142.98938,149.30737 132.22368,152.67688 125.79797,152.63087 C 119.65875,152.58691 110.89524,149.56829 106.39344,145.94691 L 103.48891,143.61042 L 114.14854,86.744597 C 121.07326,49.803337 124.46653,29.537147 123.8331,28.903717 C 123.19967,28.270287 121.45835,28.390587 118.86327,29.247037 C 115.81573,30.252817 110.82913,30.397417 97.833243,29.856857 L 80.797973,29.148277 L 80.797973,31.485927 C 80.797973,32.771637 80.120953,34.790157 79.293483,35.971547 C 77.951893,37.886927 78.006873,44.751697 79.801253,99.368488 C 80.908003,133.05544 81.922533,160.67476 82.055753,160.74478 C 82.188973,160.81479 84.811973,161.63612 87.884643,162.56995 C 94.057193,164.44588 105.12333,171.79182 104.5175,173.6112 C 104.09157,174.89031 47.729752,175.86704 46.479672,174.61696 z M 44.846472,140.51859 C 45.045062,137.44753 25.075252,34.274167 24.281762,34.271717 C 23.489582,34.269277 2.5931409,137.41978 2.7580609,140.51859 C 2.7800109,140.93109 12.247972,141.26859 23.797972,141.26859 C 35.347972,141.26859 44.819802,140.93109 44.846472,140.51859 z M 147.83788,140.51859 C 148.0028,137.41978 127.10636,34.269277 126.31418,34.271717 C 125.52069,34.274167 105.55088,137.44753 105.74947,140.51859 C 105.77615,140.93109 115.24797,141.26859 126.79797,141.26859 C 138.34797,141.26859 147.81593,140.93109 147.83788,140.51859 z "
     id="path1316"
     inkscape:export-filename="C:\Documents and Settings\Liquid_2003\Bureau\ext.png"
     inkscape:export-xdpi="90"
     inkscape:export-ydpi="90" />
</svg>
